<?xml version="1.0" standalone="no"?>
<svg xmlns="http://www.w3.org/2000/svg" viewBox="0 0 206.12 53.2" width="206.12" height="53.2"><rect fill="#09675b" width="206.12" height="53.2" x="0" y="0"></rect><g fill="white" color="white" transform="translate(12 12.001) scale(0.6212766)"><svg width="47.0" height="47.0" x="0.0" y="0.0" viewBox="0 0 47 47"><path fill="currentColor" fill-rule="evenodd" d="M25.688 41.065l6.434-27.348h12.062L25.688 41.065zM14.883 13.717l6.422 27.295-18.46-27.295h12.038zM10.517 2.858l3.707 8.9H3.041l7.476-8.9zm25.992.007l7.38 8.893H32.804l3.705-8.893zm-20.703 7.672l-3.573-8.575h9.852l-6.279 8.575zm9.131-8.575h9.859l-3.595 8.63-6.264-8.63zm-7.523 9.697l6.1-8.327 6.04 8.327h-12.14zm-.464 2.058h13.127l-6.563 28.016-6.564-28.016zm29.977-1.47a1.233 1.233 0 0 0-.216-.24L37.032.395c-.016-.023-.035-.039-.053-.06-.008-.009-.014-.019-.024-.027a.869.869 0 0 0-.602-.295.738.738 0 0 0-.19-.01H10.778c-.294 0-.587.099-.784.294L.2 12.05c-.188.283-.279.655-.112 1.032l.004.012c.006.01.006.023.011.033.006.012.014.02.02.03.023.058.043.115.077.167l22.425 33.149c.13.276.37.454.671.515.072.02.145.033.219.033.428 0 .767-.237.916-.683l22.19-32.804c.118-.081.224-.183.307-.308a.974.974 0 0 0 .094-.339.753.753 0 0 0-.094-.64z"></path></svg></g><path fill="white" fill-rule="nonzero" d="M10.40 28.60L0 28.60L0 26.76L3.68 25.88L3.68 3.32L0 2.44L0 0.60L10.40 0.60Q17.76 0.60 21.98 4.12Q26.20 7.64 26.20 14.60L26.20 14.60Q26.20 20.88 21.84 24.74Q17.48 28.60 10.40 28.60L10.40 28.60ZM8.60 3.28L8.60 25.92L10.20 25.92Q15.52 25.92 18.34 23.24Q21.16 20.56 21.16 14.60L21.16 14.60Q21.16 9.08 18.26 6.18Q15.36 3.28 10.20 3.28L10.20 3.28L8.60 3.28ZM43.64 0L43.64 0Q46.88 0 49.36 1.08Q51.84 2.16 53.56 4.08Q55.28 6 56.16 8.68Q57.04 11.36 57.04 14.56L57.04 14.56Q57.04 17.80 56.18 20.48Q55.32 23.16 53.62 25.10Q51.92 27.04 49.42 28.12Q46.92 29.20 43.64 29.20L43.64 29.20Q40.16 29.20 37.62 28.04Q35.08 26.88 33.44 24.90Q31.80 22.92 31.02 20.24Q30.24 17.56 30.24 14.48L30.24 14.48Q30.24 11.48 31.04 8.86Q31.84 6.24 33.48 4.26Q35.12 2.28 37.66 1.14Q40.20 0 43.64 0ZM43.64 2.36L43.64 2.36Q39.56 2.36 37.46 5.78Q35.36 9.20 35.36 14.60L35.36 14.60Q35.36 20.32 37.58 23.58Q39.80 26.84 43.64 26.84L43.64 26.84Q47.48 26.84 49.70 23.58Q51.92 20.32 51.92 14.60L51.92 14.60Q51.92 9.20 49.82 5.78Q47.72 2.36 43.64 2.36ZM81.88 28.60L60.28 28.60L60.28 26.76L63.96 25.88L63.96 3.32L60.28 2.44L60.28 0.60L72.56 0.60L72.56 2.44L68.88 3.32L68.88 25.92L78.28 25.92L80.44 19.96L82.28 19.96L81.88 28.60ZM106.60 28.60L85 28.60L85 26.76L88.68 25.88L88.68 3.32L85 2.44L85 0.60L105.84 0.60L105.84 8.80L103.96 8.80L102.24 3.28L93.60 2.96L93.60 13.24L102.24 12.48L102.24 16.04L93.60 15.32L93.60 26.24L103 25.92L105.04 19.96L106.92 19.96L106.60 28.60ZM119.12 28.60L109.44 28.60L109.44 26.76L113.12 25.88L121 15.00L112.88 3.36L109.32 2.44L109.32 0.60L120.96 0.60L120.96 2.44L118.40 3.04L124.44 11.60L130.52 3.24L127.76 2.44L127.76 0.60L137.40 0.60L137.40 2.44L133.72 3.32L126.04 13.84L134.64 26L137.92 26.76L137.92 28.60L126.28 28.60L126.28 26.76L128.84 26.24L122.48 17.16L116.32 25.96L119.12 26.76L119.12 28.60Z" transform="translate(56.2 12) scale(1)"></path></svg>